<?xml version="1.0" encoding="iso-8859-1"?>
<!-- Generator: Adobe Illustrator 19.0.0, SVG Export Plug-In . SVG Version: 6.00 Build 0)  -->
<svg version="1.1" id="Capa_1" xmlns="http://www.w3.org/2000/svg" xmlns:xlink="http://www.w3.org/1999/xlink" x="0px" y="0px"
	 viewBox="0 0 480 480" style="enable-background:new 0 0 480 480;" xml:space="preserve">
	<g>
		<g>
			<path d="M87.228,409.6l-32-24c-2.844-2.133-6.756-2.133-9.6,0l-32,24c-2.014,1.511-3.2,3.882-3.2,6.4v56c0,4.418,3.582,8,8,8h64
				c4.418,0,8-3.582,8-8v-56C90.428,413.482,89.242,411.111,87.228,409.6z M74.428,464h-16v-16h-16v16h-16v-44l24-18l24,18V464z"/>
		</g>
	</g>
	<g>
		<g>
			<path d="M183.228,409.6l-32-24c-2.844-2.133-6.756-2.133-9.6,0l-32,24c-2.014,1.511-3.2,3.882-3.2,6.4v56c0,4.418,3.582,8,8,8h64
				c4.418,0,8-3.582,8-8v-56C186.428,413.482,185.242,411.111,183.228,409.6z M170.428,464h-16v-16h-16v16h-16v-44l24-18l24,18V464z"
				/>
		</g>
	</g>
	<g>
		<g>
			<path d="M183.228,297.6l-32-24c-2.844-2.133-6.756-2.133-9.6,0l-32,24c-2.014,1.511-3.2,3.882-3.2,6.4v56c0,4.418,3.582,8,8,8h64
				c4.418,0,8-3.582,8-8v-56C186.428,301.482,185.242,299.111,183.228,297.6z M170.428,352h-16v-16h-16v16h-16v-44l24-18l24,18V352z"
				/>
		</g>
	</g>
	<g>
		<g>
			<path d="M279.228,409.6l-32-24c-2.844-2.133-6.756-2.133-9.6,0l-32,24c-2.014,1.511-3.2,3.882-3.2,6.4v56c0,4.418,3.582,8,8,8h64
				c4.418,0,8-3.582,8-8v-56C282.428,413.482,281.242,411.111,279.228,409.6z M266.428,464h-16v-16h-16v16h-16v-44l24-18l24,18V464z"
				/>
		</g>
	</g>
	<g>
		<g>
			<path d="M375.228,409.6l-32-24c-2.844-2.133-6.756-2.133-9.6,0l-32,24c-2.014,1.511-3.2,3.882-3.2,6.4v56c0,4.418,3.582,8,8,8h64
				c4.418,0,8-3.582,8-8v-56C378.428,413.482,377.242,411.111,375.228,409.6z M362.428,464h-16v-16h-16v16h-16v-44l24-18l24,18V464z"
				/>
		</g>
	</g>
	<g>
		<g>
			<path d="M471.228,409.6l-32-24c-2.844-2.133-6.756-2.133-9.6,0l-32,24c-2.014,1.511-3.2,3.882-3.2,6.4v56c0,4.418,3.582,8,8,8h64
				c4.418,0,8-3.582,8-8v-56C474.428,413.482,473.242,411.111,471.228,409.6z M458.428,464h-16v-16h-16v16h-16v-44l24-18l24,18V464z"
				/>
		</g>
	</g>
	<g>
		<g>
			<path d="M279.228,297.6l-32-24c-2.844-2.133-6.756-2.133-9.6,0l-32,24c-2.014,1.511-3.2,3.882-3.2,6.4v56c0,4.418,3.582,8,8,8h64
				c4.418,0,8-3.582,8-8v-56C282.428,301.482,281.242,299.111,279.228,297.6z M266.428,352h-16v-16h-16v16h-16v-44l24-18l24,18V352z"
				/>
		</g>
	</g>
	<g>
		<g>
			<path d="M375.228,297.6l-32-24c-2.844-2.133-6.756-2.133-9.6,0l-32,24c-2.014,1.511-3.2,3.882-3.2,6.4v56c0,4.418,3.582,8,8,8h64
				c4.418,0,8-3.582,8-8v-56C378.428,301.482,377.242,299.111,375.228,297.6z M362.428,352h-16v-16h-16v16h-16v-44l24-18l24,18V352z"
				/>
		</g>
	</g>
	<g>
		<g>
			<path d="M471.228,297.6l-32-24c-2.844-2.133-6.756-2.133-9.6,0l-32,24c-2.014,1.511-3.2,3.882-3.2,6.4v56c0,4.418,3.582,8,8,8h64
				c4.418,0,8-3.582,8-8v-56C474.428,301.482,473.242,299.111,471.228,297.6z M458.428,352h-16v-16h-16v16h-16v-44l24-18l24,18V352z"
				/>
		</g>
	</g>
	<g>
		<g>
			<path d="M375.228,185.6l-32-24c-2.844-2.133-6.756-2.133-9.6,0l-32,24c-2.014,1.511-3.2,3.882-3.2,6.4v56c0,4.418,3.582,8,8,8h64
				c4.418,0,8-3.582,8-8v-56C378.428,189.482,377.242,187.111,375.228,185.6z M362.428,240h-16v-16h-16v16h-16v-44l24-18l24,18V240z"
				/>
		</g>
	</g>
	<g>
		<g>
			<path d="M471.228,185.6l-32-24c-2.844-2.133-6.756-2.133-9.6,0l-32,24c-2.014,1.511-3.2,3.882-3.2,6.4v56c0,4.418,3.582,8,8,8h64
				c4.418,0,8-3.582,8-8v-56C474.428,189.482,473.242,187.111,471.228,185.6z M458.428,240h-16v-16h-16v16h-16v-44l24-18l24,18V240z"
				/>
		</g>
	</g>
	<g>
		<g>
			<path d="M471.228,73.6l-32-24c-2.844-2.133-6.756-2.133-9.6,0l-32,24c-2.014,1.511-3.2,3.882-3.2,6.4v56c0,4.418,3.582,8,8,8h64
				c4.418,0,8-3.582,8-8V80C474.428,77.482,473.242,75.111,471.228,73.6z M458.428,128h-16v-16h-16v16h-16V84l24-18l24,18V128z"/>
		</g>
	</g>
	<g>
		<g>
			<path d="M394.428,0h-32v16h11.152l-64.504,58.056c-0.639,0.584-1.18,1.267-1.6,2.024L237.748,200h-91.32
				c-1.756-0.003-3.464,0.577-4.856,1.648l-136,104l9.712,12.704L149.132,216h93.296c2.892,0.001,5.559-1.559,6.976-4.08
				l71.352-126.848l65.672-59.112V40h16V8C402.428,3.582,398.846,0,394.428,0z"/>
		</g>
	</g>
	<g>
		<g>
			<rect x="26.428" y="16" width="104" height="16"/>
		</g>
	</g>
	<g>
		<g>
			<rect x="26.428" y="48" width="104" height="16"/>
		</g>
	</g>
	<g>
		<g>
			<rect x="26.428" y="80" width="56" height="16"/>
		</g>
	</g>
	<g>
		<g>
			<path d="M106.028,120.44c-21.848-21.89-57.306-21.924-79.196-0.076c-21.89,21.848-21.924,57.306-0.076,79.196
				C37.27,210.094,51.545,216.01,66.428,216c14.861,0.037,29.12-5.871,39.6-16.408C127.868,177.728,127.868,142.304,106.028,120.44z
				M74.428,120.8c5.021,1.013,9.797,2.991,14.064,5.824l-6.672,6.672l-5.04,5.04c-0.765-0.368-1.551-0.694-2.352-0.976V120.8z
				M66.428,152c2.123-0.006,4.16,0.838,5.656,2.344c3.112,3.122,3.112,8.174,0,11.296c-3.115,3.133-8.18,3.148-11.314,0.034
				c-3.133-3.115-3.148-8.18-0.034-11.314C62.243,152.845,64.292,151.995,66.428,152z M33.072,182.025
				c-12.171-18.436-7.093-43.248,11.343-55.42c4.258-2.811,9.014-4.781,14.012-5.805v16.56c-12.47,4.493-18.936,18.245-14.443,30.715
				c4.493,12.47,18.245,18.936,30.715,14.443c0.706-0.255,1.4-0.542,2.08-0.862l5.04,5.04l6.672,6.672
				C70.056,205.539,45.244,200.461,33.072,182.025z M99.804,182.064l-11.712-11.712c3.115-6.55,3.115-14.154,0-20.704l11.712-11.712
				C108.637,151.319,108.637,168.681,99.804,182.064z"/>
		</g>
	</g>
</svg>
