<svg id="Layer_1" enable-background="new 0 0 510 510" height="512" viewBox="0 0 510 510" width="512" xmlns="http://www.w3.org/2000/svg"><g id="XMLID_2324_"><path id="XMLID_2403_" d="m420.289 29.452c-2.301-10.236-4.278-19.033-6.578-29.27-48.701 11.336-256.211 59.635-256.211 59.635h-105.993s-48.012 80.021-51.507 85.845v79.155h420c0-21.368 0-83.587 0-105-76.515 0-140.179 0-217.5 0-4.346-5.794-22.53-30.04-25.333-33.777 8.974-2.089 235.152-54.733 243.122-56.588zm-90.289 135.365h30v30c-10.492 0-19.508 0-30 0 0-10.492 0-19.507 0-30zm-60 0h30v30c-10.492 0-19.508 0-30 0 0-10.492 0-19.507 0-30z"/><path id="XMLID_2463_" d="m300 314.817h-180v-60h-120v105h420c0-28.278 0-88.527 0-105h-120zm-210 15c-10.492 0-19.508 0-30 0 0-10.492 0-19.508 0-30h30zm240-30h30v30c-10.492 0-19.508 0-30 0 0 0 0-19.507 0-30z"/><path id="XMLID_2478_" d="m150 254.817h120v30h-120z"/><path id="XMLID_2509_" d="m300 449.817h-180v-60h-120v120h420c0-24.866 0-94.76 0-120h-120zm-210 0c-10.492 0-19.508 0-30 0 0-10.492 0-19.508 0-30h30zm240-30h30v30c-10.492 0-19.508 0-30 0 0 0 0-19.507 0-30z"/><path id="XMLID_2511_" d="m150 389.817h120v30h-120z"/><path id="XMLID_2512_" d="m450 254.817v54.27l60-30c0-14.748 0-15.657 0-24.27z"/><path id="XMLID_2513_" d="m450 444.088c20.002-10.001 39.958-19.979 60-30 0-14.748 0-15.657 0-24.27h-60z"/></g></svg>