<svg id="Layer_5" enable-background="new 0 0 64 64" height="512" viewBox="0 0 64 64" width="512" xmlns="http://www.w3.org/2000/svg"><path d="m60 19c1.654 0 3-1.346 3-3v-8c0-1.654-1.346-3-3-3-.449 0-.871.106-1.253.283-.741-2.474-3.035-4.283-5.747-4.283-3.309 0-6 2.691-6 6v14h-2v-11.287l-4.728-7.565c-.449-.719-1.224-1.148-2.072-1.148h-.4c-.848 0-1.623.429-2.072 1.147l-4.728 7.566v11.287h-2v-11.182l-2.712-7.232c-.355-.948-1.275-1.586-2.288-1.586s-1.933.638-2.288 1.585l-2.712 7.233v11.182h-1c-1.654 0-3 1.346-3 3v2c0 1.32.863 2.431 2.05 2.831l.261 4.169h-13.311c-1.654 0-3 1.346-3 3v9.618l2 1v2.764l-2 1v9.618c0 1.654 1.346 3 3 3h16c1.302 0 2.402-.839 2.816-2h.003 32.363c2.107 0 3.861-1.647 3.992-3.75l1.776-28.419c1.187-.4 2.05-1.511 2.05-2.831v-2c0-1.654-1.346-3-3-3h-1v-2.184c.314.112.648.184 1 .184zm0-12c.551 0 1 .448 1 1v8c0 .552-.449 1-1 1s-1-.448-1-1v-8c0-.552.449-1 1-1zm-7-4c2.206 0 4 1.794 4 4v1 7h-8v-8c0-2.206 1.794-4 4-4zm-14 18v-10h4v10zm-1.576-17.792c.081-.13.222-.208.376-.208h.4c.154 0 .294.078.375.208l3.621 5.792h-8.391zm-4.424 7.792h4v10h-4zm-9.415-7.713c.129-.344.7-.345.829.001l2.143 5.712h-5.114zm-2.585 7.713h6v10h-6zm-1.936 18h3.521l4 4-3.585 3.586v-.586c0-1.654-1.346-3-3-3h-.686zm1.936 20.382v-2.764l2-1v-5.204l3.586 3.586-5.45 5.45zm12.586-20.382 4 4-4.086 4.086-4.086-4.086 4-4zm11 0 4 4-4.086 4.086-4.086-4.086 4-4zm-20.672 20.5 4.086-4.086 4.086 4.086-4.086 4.086zm2.672 5.5-3.586 3.586v-7.172zm2.828-11 4.086-4.086 4.086 4.086-4.086 4.086zm9.586 1.414 4.086 4.086-4.086 4.086-4.086-4.086zm1.414-1.414 4.086-4.086 4.086 4.086-4.086 4.086zm5.5-5.5 4.086-4.086 4.086 4.086-4.086 4.086zm-2.828 0-4.086 4.086-4.086-4.086 4.086-4.086zm-11 0-4.086 4.086-4.086-4.086 4.086-4.086zm-4.086 17.914 2.586 2.586h-5.172zm5.414 2.586-4-4 4.086-4.086 4.086 4.086-4 4zm5.586-2.586 2.586 2.586h-5.172zm5.586 2.586h-.172l-4-4 4.086-4.086 4.086 4.086zm5.414-2.586 2.586 2.586h-5.172zm-4.086-6.914 4.086-4.086 4.086 4.086-4.086 4.086zm5.5-5.5 4.086-4.086 2.591 2.591-.481 7.692zm5.5-5.5 1.522-1.522-.179 2.866zm1.711-4.539-3.125 3.125-4.086-4.086 4-4h3.521zm-8.625-2.375-2.586-2.586h5.172zm-11 0-2.586-2.586h5.172zm-11 0-2.586-2.586h5.172zm-14 19.414c-.551 0-1-.448-1-1s.449-1 1-1 1 .448 1 1-.449 1-1 1zm-1-3.816c-1.161.414-2 1.514-2 2.816s.839 2.402 2 2.816v8.184h-4v-22h4zm8 12.816c0 .552-.449 1-1 1h-5v-8.184c1.161-.414 2-1.514 2-2.816s-.839-2.402-2-2.816v-10.184h-8v24h-3c-.551 0-1-.448-1-1v-8.382l.894-.447c.682-.34 1.106-1.025 1.106-1.789v-2.764c0-.764-.424-1.449-1.105-1.789l-.895-.447v-8.382c0-.552.449-1 1-1h16c.551 0 1 .448 1 1v8.382l-.894.447c-.682.34-1.106 1.025-1.106 1.789v2.764c0 .764.424 1.449 1.105 1.789l.895.447zm34.393-1.021-3.979-3.979 4.086-4.086 1.944 1.944-.267 4.267c-.06.98-.828 1.752-1.784 1.854zm5.607-34.979v2c0 .552-.449 1-1 1h-42c-.551 0-1-.448-1-1v-2c0-.552.449-1 1-1h42c.551 0 1 .448 1 1zm-12-3v-4h8v4z"/></svg>