<svg id="Layer_3" enable-background="new 0 0 64 64" height="512" viewBox="0 0 64 64" width="512" xmlns="http://www.w3.org/2000/svg"><g><path d="m19 1h-12c-.552 0-1 .448-1 1v60c0 .552.448 1 1 1h12c.552 0 1-.448 1-1v-60c0-.552-.448-1-1-1zm-1 60h-10v-2h3v-2h-3v-2h5v-2h-5v-2h3v-2h-3v-2h3v-2h-3v-2h3v-2h-3v-2h5v-2h-5v-2h3v-2h-3v-2h3v-2h-3v-2h3v-2h-3v-2h5v-2h-5v-2h3v-2h-3v-2h3v-2h-3v-2h3v-2h-3v-2h5v-2h-5v-2h10z"/><path d="m32.929 11.628-4-10c-.153-.379-.52-.628-.929-.628s-.776.249-.929.628l-4 10 .003.001c-.045.116-.074.24-.074.371v50c0 .552.448 1 1 1h8c.552 0 1-.448 1-1v-50c0-.131-.029-.255-.075-.37zm-4.929-6.936 2.523 6.308h-5.045zm3 44.308h-2v-36h2zm-6 0v-36h2v36zm0 12v-10h6v10z"/><path d="m45 52h-2v-40c0-.097-.014-.194-.042-.287l-3-10c-.127-.423-.517-.713-.958-.713s-.831.29-.958.713l-3 10c-.028.093-.042.19-.042.287v47c0 .552.448 1 1 1v2c0 .552.448 1 1 1h4c.552 0 1-.448 1-1v-2c.552 0 1-.448 1-1v-5h2v4h2v-12h-2zm-8-39.853 2-6.667 2 6.667v45.853h-4zm3 48.853h-2v-1h2z"/><path d="m52.5 5c-3.033 0-5.5 2.467-5.5 5.5v10.5h2v-10.5c0-1.93 1.57-3.5 3.5-3.5s3.5 1.57 3.5 3.5v8.5c0 1.103-.897 2-2 2s-2-.897-2-2v-8.5c0-.276.224-.5.5-.5s.5.224.5.5v9.5h2v-9.5c0-1.378-1.122-2.5-2.5-2.5s-2.5 1.122-2.5 2.5v8.5c0 2.206 1.794 4 4 4s4-1.794 4-4v-8.5c0-3.033-2.467-5.5-5.5-5.5z"/><path d="m52.5 25c-3.033 0-5.5 2.467-5.5 5.5v10.5h2v-10.5c0-1.93 1.57-3.5 3.5-3.5s3.5 1.57 3.5 3.5v8.5c0 1.103-.897 2-2 2s-2-.897-2-2v-8.5c0-.276.224-.5.5-.5s.5.224.5.5v9.5h2v-9.5c0-1.378-1.122-2.5-2.5-2.5s-2.5 1.122-2.5 2.5v8.5c0 2.206 1.794 4 4 4s4-1.794 4-4v-8.5c0-3.033-2.467-5.5-5.5-5.5z"/></g></svg>