<svg id="Layer_1" data-name="Layer 1" xmlns="http://www.w3.org/2000/svg" viewBox="0 0 1952.93 1850"><defs><style>.cls-1{fill:#01acfa;}</style></defs><path class="cls-1" d="M2314.61,1944.4c27.93,4.51,33.56-1.5,37.31-28.74a658.48,658.48,0,0,1,54.41-183.14c36.69-77.21,94.64-162.13,176.35-219.18a864.23,864.23,0,0,1,268.08-118.6,631.18,631.18,0,0,1,195.53-13.29c117.57,10.93,182.61,45.46,215.34,90.07a99.89,99.89,0,0,1,18.76,51.26c1,22.3-8.34,51.25-39.61,79.56-31.06,28.52-94.64,62.19-182.4,92.43-91.09,31.1-215.54,64.12-339.78,93.51A1889.75,1889.75,0,0,0,2506,1851.11c-82.13,28.74-106.94,112.81-55.87,138.54A772.33,772.33,0,0,1,2610,2097.31a1435.87,1435.87,0,0,1,213,215.53c77.34,97.15,203.88,282.44,249.11,462.37,50.45,197.52,19,384.74-89.64,437.07C2876,3263.75,2734,3189.55,2634.38,3083c-94.64-100.58-160.93-219.6-223.47-402.32-54-158.06-75.67-386-75.67-505.7,0-39.88,0-48.25,1.05-84.28,3.54-31.31-78.59-57.47-166.77,1.07-100.48,66.49-198.66,186.8-256.82,256.93-25.22,30.66-59.62,75.49-95.89,122.45-48,61.77-100.69,126.1-148.84,162.13-72.13,53-188.66,75.92-270.58,16.3-45.44-33.24-69.83-96.29-69.83-160.41a249.22,249.22,0,0,1,32.1-126.11c27.93-49.32,72.13-102.29,143.63-163a1248.32,1248.32,0,0,1,309.35-181.44c179.9-74.41,373.56-97.79,502-74.2Z" transform="translate(-1327.53 -1379)"/></svg>